<svg height="100%" xmlns="http://www.w3.org/2000/svg" xml:space="preserve" style="fill-rule:evenodd;clip-rule:evenodd;stroke-linejoin:round;stroke-miterlimit:2" viewBox="0 0 1701 522">
  <path d="m1128 1414-1-1v-131l1-132 102-1 11 1 11 1 8 2 8 2 8 4 8 4 5 5 9 10 3 6 3 7 3 8 2 9 2 9v34l-1 4-3 14-2 10-4 8-3 9-4 6-9 11-4 5-7 5-7 4-8 3-7 3-8 1-8 1-22-1-8-2-7-3-6-3-10-8-5-4-1 36-1 50v15h-46l-2-1Zm111-118 6-3 4-5 4-4 2-4c1-3 3-7 3-11l2-5 1-31-2-10-2-10-3-6-2-5-5-4c-5-5-10-7-18-10l-5-1-24-1h-23v63l3 14 6 16 5 6 5 6 4 2c7 4 11 5 18 6l6 1 5-1 5-1 5-2Zm-405 38-10-2-7-1-10-5-9-4-14-10-6-8-6-7-6-13-3-10-2-10v-29l3-12 3-12 3-7c2-4 6-11 10-15l5-8 8-7 14-10 6-4 20-8 11-1 11-2 27 1 7 2 7 1 9 4 8 3 7 4 8 5 7 7 7 8 4 8 4 9 2 7 2 8 1 10v10l-2 21-2 7c-2 9-7 18-12 27l-5 7-5 6c-7 7-15 13-25 19-11 5-18 8-31 10l-10 2h-13l-16-1Zm35-35 12-4 4-3 7-7 4-4 3-6 3-7 3-18-1-23-3-12-4-7-3-7-6-5-5-5-4-2-10-3-5-1h-10l-10 1-6 2-6 3-4 3-7 8-4 5-3 8-3 8-2 19 1 8 2 13 1 5 4 8 4 8 5 4 5 5 5 2 9 4 6 1h9l9-1Zm467 35h-1v-262h25l25 1v99h1l9-5 15-10 7-3 10-3 10-2h27l13 3 3 3 7 5 3 3 2 4 4 11 1 6 1 75v75h-49v-118l-2-7-1-7-3-4-3-4-5-2-5-2h-18l-5 2-5 3-5 4-4 4-3 6-2 5-2 6-1 7v107l-3 1h-22l-24-1Zm208-1-7-2-5-4-4-4-3-7-4-7-1-7-1-6 1-146h49v61l1 61 1 4 3 7 2 4 4 3 4 2 16 1 6-2 6-2 4-4 4-3 3-5 4-10 2-6 1-56 1-55 41-1 4 1h4v184h-49v-24h-1l-1-1-5 5-6 5-7 4c-8 6-13 8-24 10l-8 2h-28l-7-2Zm-516 0-7-2-9-4-4-4-4-3-4-8-2-13v-114h-35v-35h36v-50l15-5a1160 1160 0 0 0 32-9h1v64h32l29 1v34h-60l-1 1v1l1 89 2 5 2 5 4 3 4 4 11 4h34v34l-1 3h-69l-7-1Zm676 1v-262h24l25 1 1 98 1 1h1l4-4c6-5 15-10 23-13l7-3 16-3h25l6 1 11 5 4 2 7 6 6 7 3 7 4 8 1 6 4 16 1 11-1 33-4 26-6 15-4 7-5 8-6 6-6 6-6 3-6 4-8 3-8 2-20 3h-94Zm94-36 11-4 9-9 3-5 4-11 1-6 1-17v-16l-2-10-2-9-6-11-5-4-4-4-5-2-5-1h-9l-9 1-5 2-6 3-4 4-6 9-2 5-2 9-2 10 1 34 1 5 2 6 3 5 2 5 5 4 4 4 6 2 6 2h7l8-1Z" style="fill:#00007B;fill-rule:nonzero" transform="translate(-1157 -1631) scale(1.5218)"/>
</svg>
